<svg width="24" height="24" viewBox="0 0 24 24" fill="none" xmlns="http://www.w3.org/2000/svg">
<path d="M14.9944 14.4974C14.0878 14.438 13.375 13.688 13.375 12.7712C13.375 12.7406 13.3756 12.71 13.3774 12.6794V12.6836C13.3756 12.6548 13.3744 12.6212 13.3744 12.587C13.3744 11.672 14.0884 10.9244 14.9896 10.8698H14.9944C15.8998 10.919 16.615 11.6648 16.615 12.578C16.615 12.6152 16.6138 12.6518 16.6114 12.6884V12.6836C16.6132 12.7136 16.6144 12.749 16.6144 12.7844C16.6144 13.6982 15.8998 14.4452 14.9986 14.4968H14.9938L14.9944 14.4974ZM9.01485 14.4974C8.10825 14.438 7.39545 13.688 7.39545 12.7712C7.39545 12.7406 7.39605 12.71 7.39785 12.6794V12.6836C7.39605 12.6548 7.39485 12.6212 7.39485 12.587C7.39485 11.672 8.10885 10.9244 9.01005 10.8698H9.01485C9.92025 10.919 10.6354 11.6648 10.6354 12.578C10.6354 12.6152 10.6342 12.6518 10.6318 12.6884V12.6836C10.6336 12.7124 10.6348 12.746 10.6348 12.7802C10.6348 13.6952 9.92085 14.4428 9.01965 14.4974H9.01485ZM18.235 6.27865C17.1772 5.77945 15.9484 5.38465 14.662 5.15605L14.5726 5.14285C14.5696 5.14225 14.566 5.14165 14.5624 5.14165C14.5414 5.14165 14.5234 5.15305 14.5138 5.16985C14.3734 5.41645 14.221 5.72425 14.0836 6.03985L14.0578 6.10645C13.4398 6.00745 12.727 5.95105 12.001 5.95105C11.275 5.95105 10.5622 6.00745 9.86685 6.11605L9.94425 6.10585C9.78225 5.72785 9.62745 5.42065 9.45645 5.12305L9.48105 5.16925C9.47085 5.15185 9.45225 5.14105 9.43125 5.14105C9.42825 5.14105 9.42465 5.14105 9.42165 5.14165C8.04585 5.38345 6.81705 5.77765 5.66865 6.31585L5.75925 6.27745C5.74905 6.28165 5.74065 6.28885 5.73525 6.29785C4.02285 8.72245 2.99805 11.7392 2.99805 14.9954C2.99805 15.5396 3.02685 16.0766 3.08265 16.6058L3.07725 16.5398C3.07905 16.5572 3.08805 16.5716 3.10065 16.5818C4.38465 17.5424 5.87745 18.3164 7.48845 18.8246L7.59405 18.8534C7.59885 18.8552 7.60485 18.8558 7.61085 18.8558C7.63005 18.8558 7.64685 18.8468 7.65705 18.833C7.97805 18.401 8.28345 17.9114 8.54805 17.3978L8.57625 17.3378C8.57985 17.3306 8.58225 17.3216 8.58225 17.312C8.58225 17.2874 8.56665 17.267 8.54505 17.2586H8.54445C7.99725 17.0474 7.53465 16.8224 7.09425 16.5644L7.14045 16.5896C7.12305 16.5794 7.11165 16.5608 7.11165 16.5398C7.11165 16.5212 7.12065 16.5044 7.13445 16.4942C7.22865 16.4234 7.32345 16.3502 7.41345 16.2758C7.42305 16.268 7.43565 16.2632 7.44885 16.2632C7.45725 16.2632 7.46505 16.265 7.47165 16.268H7.47105C8.79585 16.9046 10.351 17.2766 11.9926 17.2766C13.6342 17.2766 15.19 16.9046 16.5784 16.2404L16.5142 16.268C16.5214 16.2644 16.5292 16.2626 16.5382 16.2626C16.5514 16.2626 16.564 16.2674 16.5736 16.2752C16.6636 16.3496 16.7578 16.424 16.8532 16.4942C16.867 16.505 16.876 16.5218 16.876 16.5404C16.876 16.5614 16.8646 16.5794 16.8484 16.5896C16.4518 16.8266 15.9892 17.051 15.5074 17.2364L15.4444 17.258C15.4228 17.2664 15.4072 17.2874 15.4072 17.3114C15.4072 17.321 15.4096 17.33 15.4138 17.3378C15.7144 17.9138 16.0192 18.4022 16.3564 18.866L16.3324 18.8318C16.3426 18.8462 16.36 18.8558 16.3786 18.8558C16.3846 18.8558 16.3906 18.8546 16.396 18.8534C18.115 18.3182 19.6102 17.5442 20.935 16.5542L20.896 16.5824C20.9092 16.5728 20.9176 16.5578 20.9194 16.541C20.9716 16.0706 21.001 15.5246 21.001 14.972C21.001 11.723 19.9738 8.71405 18.2272 6.25165L18.2584 6.29845C18.2536 6.28885 18.2452 6.28105 18.2356 6.27685L18.235 6.27865Z" fill="#151E3F"/>
</svg>
