<svg width="158" height="36" viewBox="0 0 158 36" fill="none" xmlns="http://www.w3.org/2000/svg">
<g clip-path="url(#clip0_38_176)">
<mask id="mask0_38_176" style="mask-type:luminance" maskUnits="userSpaceOnUse" x="0" y="0" width="32" height="36">
<path d="M32 0H0V36H32V0Z" fill="white"/>
</mask>
<g mask="url(#mask0_38_176)">
<path fill-rule="evenodd" clip-rule="evenodd" d="M16.0005 26.5263L8.49609 30.9697V24.3877L13.1149 21.6528L16.0005 19.9442L18.8861 21.6528L23.5049 24.3876V30.9697L16.0005 26.5263ZM26.3368 32.6465L32.0005 36V29.4179V6.58208V0L26.3368 3.35352L16.0005 9.47368L8.49609 5.03026V11.6123L13.1149 14.3472L16.0005 16.0558L18.8861 14.3472L26.3368 9.9356V26.0644V32.6465Z" fill="#2955FF"/>
<path d="M5.6637 3.3535L0 0V6.58208V29.4179V36L5.66372 32.6465L5.6637 3.3535Z" fill="#2955FF"/>
</g>
<path d="M49.4088 7H44.8379V29.2353H49.4088V7Z" fill="#151E3F"/>
<path d="M112.346 7H107.775V29.2353H112.346V7Z" fill="#151E3F"/>
<path d="M120.448 29.2353H115.861V13.4212V7H115.878L120.448 11.5719L131.668 22.7562V7H136.255V29.2353H131.668L120.448 18.0098V29.2353Z" fill="#151E3F"/>
<path d="M52.9238 29.2353H57.4947V18.0771L64.8785 25.4888L72.2622 18.0771V29.2353H76.8331V13.4888V7L64.8785 19L52.9238 7V13.4888V29.2353Z" fill="#151E3F"/>
<path d="M80.3496 29.2353H84.9205V18.0771L92.3042 25.4888L95.5364 22.2444L99.688 18.0771V29.2353H104.259V13.4888V7L92.3042 19L80.3496 7V13.4888V29.2353Z" fill="#151E3F"/>
<path d="M148.641 11.2812C147.016 11.2812 145.203 11.9531 145.203 13.5938C145.203 15.1875 146.953 15.9219 148.641 15.9219C150.281 15.9219 152.094 15.2188 152.094 13.5938C152.094 11.9844 150.359 11.2812 148.641 11.2812ZM148.641 19.5938C146.766 19.5938 144.672 20.4219 144.672 22.3594C144.672 24.25 146.688 25.125 148.641 25.125C150.531 25.125 152.625 24.2969 152.625 22.3594C152.625 20.4688 150.625 19.5938 148.641 19.5938ZM154.312 17.5156C156.391 18.9844 157.297 20.7188 157.297 22.6562C157.297 27 152.953 29.4062 148.641 29.4062C144.516 29.4062 140 27.1094 140 22.6562C140 20.7188 140.906 18.9844 142.984 17.5156C141.516 16.4688 140.703 15.0469 140.703 13.1875C140.703 9.21875 144.703 7 148.641 7C152.453 7 156.594 9.10938 156.594 13.1875C156.594 15.0469 155.781 16.4688 154.312 17.5156Z" fill="#151E3F"/>
</g>
<defs>
<clipPath id="clip0_38_176">
<rect width="158" height="36" fill="white"/>
</clipPath>
</defs>
</svg>
