<svg width="24" height="24" viewBox="0 0 24 24" fill="none" xmlns="http://www.w3.org/2000/svg">
<path d="M13.5374 12.0002C13.5374 15.7115 10.507 18.7203 6.76859 18.7203C3.03022 18.7203 0 15.7124 0 12.0002C0 8.28792 3.03045 5.28027 6.76859 5.28027C10.5067 5.28027 13.5374 8.28882 13.5374 12.0002ZM20.9629 12.0002C20.9629 15.4939 19.4475 18.3259 17.5785 18.3259C15.7094 18.3259 14.1941 15.493 14.1941 12.0002C14.1941 8.5073 15.7094 5.67439 17.5785 5.67439C19.4475 5.67439 20.9629 8.5073 20.9629 12.0002ZM24 12.0002C24 15.1304 23.467 17.6678 22.8097 17.6678C22.1523 17.6678 21.6193 15.1295 21.6193 12.0002C21.6193 8.87082 22.1523 6.33253 22.8099 6.33253C23.4675 6.33253 24 8.87014 24 12.0002Z" fill="#151E3F"/>
</svg>
