<svg width="24" height="24" viewBox="0 0 24 24" fill="none" xmlns="http://www.w3.org/2000/svg">
<g clip-path="url(#clip0_376_670)">
<path fill-rule="evenodd" clip-rule="evenodd" d="M19.8076 5.37551C20.6712 5.61413 21.353 6.2959 21.5802 7.15948C22.0007 8.72756 22.0007 12.0001 22.0007 12.0001C22.0007 12.0001 22.0007 15.2726 21.5916 16.8407C21.353 17.7156 20.6826 18.3974 19.819 18.6246C18.2509 19.0451 12.0013 19.0451 12.0013 19.0451C12.0013 19.0451 5.75171 19.0451 4.19499 18.6246C3.33141 18.386 2.64964 17.7042 2.42238 16.8407C2.00195 15.2726 2.00195 12.0001 2.00195 12.0001C2.00195 12.0001 2.00195 8.72756 2.41102 7.15948C2.64964 6.28454 3.32005 5.60276 4.18363 5.37551C5.75171 4.95508 12.0013 4.95508 12.0013 4.95508C12.0013 4.95508 18.2509 4.95508 19.8076 5.37551ZM15.1823 12.0005L9.95532 9.02344V14.9776L15.1823 12.0005Z" fill="#151E3F"/>
</g>
<defs>
<clipPath id="clip0_376_670">
<rect width="20" height="20" fill="white" transform="translate(2 2)"/>
</clipPath>
</defs>
</svg>
